HIERARCHY
ROOT Hips
{
	OFFSET 0.000000 71.427986 0.000000
	CHANNELS 6 Xposition Yposition Zposition Xrotation Yrotation Zrotation
	JOINT Pelvis
	{
		OFFSET 0.000000 0.000000 0.000000
		CHANNELS 3 Xrotation Yrotation Zrotation
		JOINT LeftUpLeg
		{
			OFFSET 6.797100 -2.508499 -1.318700
			CHANNELS 3 Xrotation Yrotation Zrotation
			JOINT LeftLeg
			{
				OFFSET 0.069008 -29.241863 0.690200
				CHANNELS 3 Xrotation Yrotation Zrotation
				JOINT LeftFoot
				{
					OFFSET -0.069008 -29.568123 -0.266800
					CHANNELS 3 Xrotation Yrotation Zrotation
					JOINT LeftToeBase
					{
						OFFSET 3.145500 -8.631000 16.059900
						CHANNELS 3 Xrotation Yrotation Zrotation
						End Site
						{
							OFFSET 0.000000 18.501587 0.000000
						}
					}
				}
			}
			JOINT Left_ShortSleeve
			{
				OFFSET 0.265923 -10.480953 1.153800
				CHANNELS 3 Xrotation Yrotation Zrotation
				End Site
				{
					OFFSET 1.725763 19.823879 0.000000
				}
			}
		}
		JOINT RightUpLeg
		{
			OFFSET -6.797100 -2.508499 -1.318700
			CHANNELS 3 Xrotation Yrotation Zrotation
			JOINT RightLeg
			{
				OFFSET -0.082453 -29.241932 0.688000
				CHANNELS 3 Xrotation Yrotation Zrotation
				JOINT RightFoot
				{
					OFFSET 0.082453 -29.568058 -0.264600
					CHANNELS 3 Xrotation Yrotation Zrotation
					JOINT RightToeBase
					{
						OFFSET -3.115300 -8.682800 16.113400
						CHANNELS 3 Xrotation Yrotation Zrotation
						End Site
						{
							OFFSET 0.000000 18.567114 0.000000
						}
					}
				}
			}
			JOINT Right_ShortSleeve
			{
				OFFSET -0.265923 -10.480953 1.153800
				CHANNELS 3 Xrotation Yrotation Zrotation
				End Site
				{
					OFFSET -1.725766 19.823910 0.000000
				}
			}
		}
	}
	JOINT Spine
	{
		OFFSET 0.000000 13.368103 0.470500
		CHANNELS 3 Xrotation Yrotation Zrotation
		JOINT Spine1
		{
			OFFSET 0.147000 13.837402 0.538800
			CHANNELS 3 Xrotation Yrotation Zrotation
			JOINT Spine2
			{
				OFFSET 0.168000 16.242897 -1.435500
				CHANNELS 3 Xrotation Yrotation Zrotation
				JOINT Neck
				{
					OFFSET 0.217200 18.631500 -1.679100
					CHANNELS 3 Xrotation Yrotation Zrotation
					JOINT Head
					{
						OFFSET 0.000000 6.599396 1.385900
						CHANNELS 3 Xrotation Yrotation Zrotation
						JOINT Hat
						{
							OFFSET -0.532200 27.220596 -10.096100
							CHANNELS 3 Xrotation Yrotation Zrotation
							End Site
							{
								OFFSET 0.000000 22.029861 0.000000
							}
						}
						JOINT HairD
						{
							OFFSET -10.777400 17.437393 -1.325900
							CHANNELS 3 Xrotation Yrotation Zrotation
							JOINT HairD1
							{
								OFFSET -3.290299 -11.051193 1.062200
								CHANNELS 3 Xrotation Yrotation Zrotation
								End Site
								{
									OFFSET 0.000000 11.579437 0.000000
								}
							}
						}
						JOINT HairB
						{
							OFFSET -10.777400 17.437393 1.467900
							CHANNELS 3 Xrotation Yrotation Zrotation
							JOINT HairB1
							{
								OFFSET -1.561200 -12.956299 3.590200
								CHANNELS 3 Xrotation Yrotation Zrotation
								End Site
								{
									OFFSET 0.000000 13.534866 0.000000
								}
							}
						}
						JOINT HairA
						{
							OFFSET 9.713100 17.437393 1.467900
							CHANNELS 3 Xrotation Yrotation Zrotation
							JOINT HairA1
							{
								OFFSET 1.561200 -12.956299 3.590200
								CHANNELS 3 Xrotation Yrotation Zrotation
								End Site
								{
									OFFSET 0.000000 13.534866 0.000000
								}
							}
						}
						JOINT HairC
						{
							OFFSET 9.713100 17.437393 -1.325900
							CHANNELS 3 Xrotation Yrotation Zrotation
							JOINT HairC1
							{
								OFFSET 3.290300 -11.051193 1.062200
								CHANNELS 3 Xrotation Yrotation Zrotation
								End Site
								{
									OFFSET 0.000000 11.579437 0.000000
								}
							}
						}
					}
				}
				JOINT LeftShoulder
				{
					OFFSET 5.101800 15.108002 -2.763700
					CHANNELS 3 Xrotation Yrotation Zrotation
					JOINT LeftArm
					{
						OFFSET 9.825497 2.506317 -1.597400
						CHANNELS 3 Xrotation Yrotation Zrotation
						JOINT LeftForeArm
						{
							OFFSET 21.966244 0.000000 0.000000
							CHANNELS 3 Xrotation Yrotation Zrotation
							JOINT LeftHand
							{
								OFFSET 33.879036 0.000000 0.000000
								CHANNELS 3 Xrotation Yrotation Zrotation
								JOINT LeftHandThumb1
								{
									OFFSET 6.715286 -2.359680 3.363841
									CHANNELS 3 Xrotation Yrotation Zrotation
									JOINT LeftHandThumb2
									{
										OFFSET 2.507072 -1.447464 1.447461
										CHANNELS 3 Xrotation Yrotation Zrotation
										JOINT LeftHandThumb3
										{
											OFFSET 2.898338 -1.673355 1.673357
											CHANNELS 3 Xrotation Yrotation Zrotation
											End Site
											{
												OFFSET -0.295959 3.727692 -0.131651
											}
										}
									}
								}
								JOINT LeftHandIndex1
								{
									OFFSET 14.190811 -0.254547 3.840278
									CHANNELS 3 Xrotation Yrotation Zrotation
									JOINT LeftHandIndex2
									{
										OFFSET 3.551727 0.000000 -0.000000
										CHANNELS 3 Xrotation Yrotation Zrotation
										JOINT LeftHandIndex3
										{
											OFFSET 2.894196 0.000000 0.000000
											CHANNELS 3 Xrotation Yrotation Zrotation
											End Site
											{
												OFFSET -1.000603 2.690872 0.366626
											}
										}
									}
								}
								JOINT LeftHandMiddle1
								{
									OFFSET 13.776489 0.000000 0.000000
									CHANNELS 3 Xrotation Yrotation Zrotation
									JOINT LeftHandMiddle2
									{
										OFFSET 3.438232 0.000000 0.000000
										CHANNELS 3 Xrotation Yrotation Zrotation
										JOINT LeftHandMiddle3
										{
											OFFSET 3.691551 0.000000 0.000000
											CHANNELS 3 Xrotation Yrotation Zrotation
											End Site
											{
												OFFSET -1.082298 3.499527 0.457670
											}
										}
									}
								}
								JOINT LeftHandRing1
								{
									OFFSET 13.966164 -0.268127 -3.067488
									CHANNELS 3 Xrotation Yrotation Zrotation
									JOINT LeftHandRing2
									{
										OFFSET 3.162567 0.000000 0.000000
										CHANNELS 3 Xrotation Yrotation Zrotation
										JOINT LeftHandRing3
										{
											OFFSET 3.324348 0.000000 0.000000
											CHANNELS 3 Xrotation Yrotation Zrotation
											End Site
											{
												OFFSET -0.861900 3.184998 0.405154
											}
										}
									}
								}
								JOINT LeftHandPinky1
								{
									OFFSET 13.131393 -0.168503 -5.746925
									CHANNELS 3 Xrotation Yrotation Zrotation
									JOINT LeftHandPinky2
									{
										OFFSET 2.849182 0.000000 0.000000
										CHANNELS 3 Xrotation Yrotation Zrotation
										JOINT LeftHandPinky3
										{
											OFFSET 2.805038 0.000000 0.000000
											CHANNELS 3 Xrotation Yrotation Zrotation
											End Site
											{
												OFFSET -0.882500 2.642609 0.325652
											}
										}
									}
								}
							}
							JOINT Left_Sleeve
							{
								OFFSET 6.592125 -0.646545 0.805568
								CHANNELS 3 Xrotation Yrotation Zrotation
								End Site
								{
									OFFSET -0.000179 20.275787 -0.000000
								}
							}
						}
					}
				}
				JOINT RightShoulder
				{
					OFFSET -5.731700 15.108002 -2.763700
					CHANNELS 3 Xrotation Yrotation Zrotation
					JOINT RightArm
					{
						OFFSET -9.825497 2.506317 -1.597400
						CHANNELS 3 Xrotation Yrotation Zrotation
						JOINT RightForeArm
						{
							OFFSET -21.966242 0.000000 0.000000
							CHANNELS 3 Xrotation Yrotation Zrotation
							JOINT RightHand
							{
								OFFSET -33.879032 0.000000 0.000000
								CHANNELS 3 Xrotation Yrotation Zrotation
								JOINT RightHandThumb1
								{
									OFFSET -6.715286 -2.359680 3.363841
									CHANNELS 3 Xrotation Yrotation Zrotation
									JOINT RightHandThumb2
									{
										OFFSET -2.507072 -1.447464 1.447461
										CHANNELS 3 Xrotation Yrotation Zrotation
										JOINT RightHandThumb3
										{
											OFFSET -2.898338 -1.673355 1.673357
											CHANNELS 3 Xrotation Yrotation Zrotation
											End Site
											{
												OFFSET 0.295959 3.727692 -0.131651
											}
										}
									}
								}
								JOINT RightHandIndex1
								{
									OFFSET -14.190811 -0.254547 3.840278
									CHANNELS 3 Xrotation Yrotation Zrotation
									JOINT RightHandIndex2
									{
										OFFSET -3.551727 0.000000 -0.000000
										CHANNELS 3 Xrotation Yrotation Zrotation
										JOINT RightHandIndex3
										{
											OFFSET -2.894196 0.000000 0.000000
											CHANNELS 3 Xrotation Yrotation Zrotation
											End Site
											{
												OFFSET 1.000603 2.690872 0.366626
											}
										}
									}
								}
								JOINT RightHandMiddle1
								{
									OFFSET -13.776489 0.000000 0.000000
									CHANNELS 3 Xrotation Yrotation Zrotation
									JOINT RightHandMiddle2
									{
										OFFSET -3.438232 0.000000 0.000000
										CHANNELS 3 Xrotation Yrotation Zrotation
										JOINT RightHandMiddle3
										{
											OFFSET -3.691551 0.000000 0.000000
											CHANNELS 3 Xrotation Yrotation Zrotation
											End Site
											{
												OFFSET 1.082298 3.499527 0.457670
											}
										}
									}
								}
								JOINT RightHandRing1
								{
									OFFSET -13.966164 -0.268127 -3.067488
									CHANNELS 3 Xrotation Yrotation Zrotation
									JOINT RightHandRing2
									{
										OFFSET -3.162567 0.000000 0.000000
										CHANNELS 3 Xrotation Yrotation Zrotation
										JOINT RightHandRing3
										{
											OFFSET -3.324348 0.000000 0.000000
											CHANNELS 3 Xrotation Yrotation Zrotation
											End Site
											{
												OFFSET 0.861900 3.184998 0.405154
											}
										}
									}
								}
								JOINT RightHandPinky1
								{
									OFFSET -13.131393 -0.168503 -5.746925
									CHANNELS 3 Xrotation Yrotation Zrotation
									JOINT RightHandPinky2
									{
										OFFSET -2.849182 0.000000 0.000000
										CHANNELS 3 Xrotation Yrotation Zrotation
										JOINT RightHandPinky3
										{
											OFFSET -2.805038 0.000000 0.000000
											CHANNELS 3 Xrotation Yrotation Zrotation
											End Site
											{
												OFFSET 0.882500 2.642609 0.325652
											}
										}
									}
								}
							}
							JOINT Right_Sleeve
							{
								OFFSET -6.592125 -0.646545 0.805568
								CHANNELS 3 Xrotation Yrotation Zrotation
								End Site
								{
									OFFSET 0.000179 20.275787 -0.000000
								}
							}
						}
					}
				}
				JOINT Bind_Right_JacketString
				{
					OFFSET -3.534800 11.969597 7.200700
					CHANNELS 3 Xrotation Yrotation Zrotation
					JOINT Bind_Right_JacketString1
					{
						OFFSET -0.319900 -6.102600 2.794100
						CHANNELS 3 Xrotation Yrotation Zrotation
						End Site
						{
							OFFSET 0.000000 6.719452 0.000000
						}
					}
				}
				JOINT Bind_Left_JacketString
				{
					OFFSET 2.904800 11.969597 7.200700
					CHANNELS 3 Xrotation Yrotation Zrotation
					JOINT Bind_Left_JacketString1
					{
						OFFSET 0.364800 -5.904503 3.186800
						CHANNELS 3 Xrotation Yrotation Zrotation
						End Site
						{
							OFFSET 0.000000 6.719513 0.000000
						}
					}
				}
				JOINT HairE
				{
					OFFSET 5.915200 17.612701 -11.592200
					CHANNELS 3 Xrotation Yrotation Zrotation
					JOINT HairE1
					{
						OFFSET 0.289200 -7.171898 -1.284500
						CHANNELS 3 Xrotation Yrotation Zrotation
						End Site
						{
							OFFSET 0.000000 7.291756 0.000000
						}
					}
				}
				JOINT HairF
				{
					OFFSET -0.864800 17.612701 -11.592200
					CHANNELS 3 Xrotation Yrotation Zrotation
					JOINT HairF1
					{
						OFFSET 0.000000 -14.087097 -2.127501
						CHANNELS 3 Xrotation Yrotation Zrotation
						End Site
						{
							OFFSET 0.000000 14.246841 0.000000
						}
					}
				}
				JOINT HairG
				{
					OFFSET -8.087700 17.612701 -11.592200
					CHANNELS 3 Xrotation Yrotation Zrotation
					JOINT HairG1
					{
						OFFSET -0.293600 -6.081398 -0.910100
						CHANNELS 3 Xrotation Yrotation Zrotation
						End Site
						{
							OFFSET 0.000000 6.156120 0.000000
						}
					}
				}
			}
		}
	}
	JOINT Pouch
	{
		OFFSET 0.000000 4.394501 10.847300
		CHANNELS 3 Xrotation Yrotation Zrotation
		End Site
		{
			OFFSET 0.000000 21.880577 0.000000
		}
	}
	JOINT Bag
	{
		OFFSET -13.229000 4.813004 -0.593300
		CHANNELS 3 Xrotation Yrotation Zrotation
		End Site
		{
			OFFSET 0.000000 21.880577 0.000000
		}
	}
	JOINT OccupyGuyFacialAnim_Joint
	{
		OFFSET 1.000000 -70.206398 -1.655000
		CHANNELS 3 Xrotation Yrotation Zrotation
		End Site
		{
			OFFSET 0.000000 21.880577 0.000000
		}
	}
}
MOTION
Frames: 4
Frame Time: 0.033333
-0.058947 62.278290 1.135721 11.281324 -1.130364 -5.473135 0.000000 0.000000 0.000000 -56.165038 -1.780065 8.462319 128.253904 5.173982 0.402180 3.393164 0.674199 -2.131648 0.000000 -0.000000 0.000000 0.000001 0.000000 -0.000000 -33.774251 -10.622015 6.988771 57.956641 0.447125 1.339609 -34.920886 2.766436 -7.099168 0.000000 -0.000000 -0.000000 -0.000001 0.000000 0.000000 9.994534 1.630841 7.595648 2.029120 -0.047010 0.508498 4.987206 -0.052526 0.186542 -3.841288 -0.341669 -0.277916 -16.135760 0.809280 -3.139613 0.000001 -0.000000 0.000000 0.000001 -0.000000 0.000000 0.000001 -0.000000 0.000000 0.000001 -0.000000 0.000000 -0.000000 0.000000 0.000000 0.000001 -0.000000 0.000000 -0.000000 0.000000 0.000000 0.000001 -0.000000 0.000000 0.000001 -0.000000 0.000000 0.557757 -4.314580 -11.777464 13.923808 -4.817025 -56.121410 -0.000000 -89.999975 -0.000002 3.946647 -2.534494 11.903164 -0.820496 6.623778 -5.864584 14.168496 15.386726 18.402807 0.000002 0.000002 0.000000 9.947309 5.735759 -90.836257 4.054185 5.569223 -72.086397 -0.000001 -0.000002 -0.000000 4.883454 8.107997 -80.603377 4.657605 5.728469 -78.210775 0.000005 0.000003 -0.000001 2.753096 7.678668 -78.443514 5.946869 5.850302 -90.939878 0.000006 0.000001 0.000000 7.311332 13.596491 -78.537244 4.413839 5.672384 -75.756954 0.000000 -0.000003 0.000001 0.000001 -0.000000 -0.000000 0.567966 4.488691 11.813867 -16.187046 25.518744 44.451168 -0.010033 90.272274 0.009424 7.843986 11.318573 -12.809355 5.535791 -3.771061 -3.032817 2.457535 -9.078658 -15.939546 0.000003 -0.000001 -0.000000 -3.723513 -3.298363 73.105004 3.463110 -4.501795 75.128495 0.000002 0.000000 0.000002 -3.073197 -4.980250 74.622337 3.766059 -4.571277 78.956987 -0.000002 -0.000000 -0.000003 -3.819540 -5.359637 78.849534 3.124249 -4.398170 70.762836 0.000001 -0.000002 -0.000001 -1.443980 -6.451709 84.219538 3.515522 -4.515364 75.795067 -0.000002 -0.000001 0.000000 0.000002 0.000000 -0.000000 -0.000001 -0.000000 -0.000000 0.000001 0.000000 -0.000000 -0.000001 -0.000000 0.000000 -0.000001 -0.000000 0.000000 -0.000001 -0.000000 -0.000000 0.000001 0.000000 -0.000000 -0.000001 -0.000000 0.000000 -0.000001 -0.000000 0.000000 -0.000001 -0.000000 -0.000000 0.000001 0.000000 -0.000000 0.000000 0.000000 0.000000 0.000000 0.000000 0.000000 0.000000 0.000000 0.000000 
0.984733 61.046555 9.219748 7.962228 -4.456512 -5.232123 -0.000002 0.000000 0.000000 -77.011646 4.805735 2.747522 117.331927 7.191770 -2.136405 3.509887 10.411951 -6.324517 -0.000000 0.000001 -0.000001 0.000002 -0.000001 0.000000 -21.342415 -9.225379 6.433991 58.349999 7.602860 -0.742555 -44.061605 -0.299497 -8.155264 0.000000 -0.000000 -0.000000 0.000001 -0.000000 -0.000000 9.340247 3.988487 10.610937 1.893694 0.746899 2.146939 4.414661 0.788130 1.835468 -4.277137 -0.891516 0.382416 -13.189719 -2.917336 -1.608851 0.000001 0.000000 -0.000000 0.000001 0.000000 -0.000000 0.000001 0.000000 0.000000 0.000001 0.000000 -0.000000 0.000000 0.000000 -0.000000 0.000001 0.000000 -0.000000 0.000000 0.000000 -0.000000 0.000001 0.000000 -0.000000 0.000001 0.000000 -0.000000 0.675828 -2.742795 -6.799515 14.517876 -0.256598 -57.462511 0.000016 -70.243441 0.000036 3.406673 3.275167 -5.094472 -0.696862 6.916660 -6.113395 14.018133 15.768579 18.942865 0.000000 0.000001 -0.000003 10.389173 5.613907 -92.497024 4.149285 5.598933 -73.063428 0.000002 0.000001 -0.000002 5.008713 8.128989 -81.868580 4.769153 5.750517 -79.326070 0.000002 -0.000002 0.000002 2.653595 7.702992 -79.587488 6.088762 5.846256 -92.332307 -0.000002 0.000001 0.000002 7.092459 13.323511 -79.503702 4.518853 5.697899 -76.816904 -0.000000 -0.000000 0.000003 0.000003 0.000002 0.000001 0.972935 5.317717 14.423565 -17.480870 34.441666 35.023195 -0.000005 72.128956 0.000017 13.774612 19.901173 -10.093199 5.765305 -3.996274 -2.965001 2.375530 -9.244308 -16.359374 0.000001 -0.000002 0.000000 -3.644938 -3.506088 74.176797 3.532966 -4.519710 76.016474 -0.000001 -0.000001 -0.000002 -3.153172 -5.078786 75.585913 3.842804 -4.585560 79.918664 -0.000001 0.000000 -0.000001 -4.050613 -5.455971 79.835117 3.185417 -4.418996 71.558772 0.000002 -0.000003 -0.000003 -1.930463 -6.451161 85.116028 3.588394 -4.533137 76.718795 -0.000002 -0.000000 0.000001 0.000001 0.000001 0.000001 0.000001 0.000000 0.000000 0.000001 0.000000 -0.000000 0.000001 0.000000 0.000001 0.000001 0.000000 0.000001 0.000001 0.000000 0.000000 0.000001 0.000000 0.000000 0.000001 0.000000 0.000001 0.000001 0.000000 0.000001 0.000001 0.000000 0.000000 0.000001 0.000000 0.000000 -0.000002 0.000000 0.000000 -0.000002 0.000000 0.000000 -0.000002 0.000000 0.000000 
2.375900 60.482445 17.307175 4.023693 -8.660488 -4.064434 -0.000000 -0.000000 0.000000 -76.780499 6.615973 -2.222767 90.023116 9.691400 -2.221170 -1.387671 21.811393 -10.688195 -0.000001 -0.000000 0.000001 -0.000000 -0.000001 0.000000 -7.357398 -9.414603 1.859484 53.898669 6.928536 -2.905236 -48.138678 4.355136 -2.096775 -0.000000 -0.000000 -0.000000 -0.000001 -0.000000 -0.000000 8.332864 5.377741 12.658524 1.794450 1.383442 3.691486 3.836814 1.450926 3.415028 -3.882817 -1.503430 1.450528 -9.646744 -7.498192 1.727212 0.000000 0.000000 0.000001 0.000000 0.000000 0.000001 0.000000 0.000000 0.000000 0.000000 0.000000 0.000001 -0.000000 0.000001 -0.000001 0.000000 0.000000 0.000001 -0.000000 0.000001 -0.000001 0.000000 0.000000 0.000001 0.000000 0.000000 0.000001 0.342743 -1.731845 -3.306773 15.574286 8.350366 -55.353175 -0.000003 -52.760312 -0.000023 8.364555 9.342417 -17.754156 -0.570558 7.217287 -6.361749 13.896361 16.144016 19.481083 0.000003 0.000001 -0.000001 10.827783 5.472368 -94.144111 4.243500 5.626623 -74.026751 0.000003 0.000001 0.000003 5.133834 8.147185 -83.120943 4.879706 5.770146 -80.427561 0.000002 0.000000 0.000001 2.551794 7.732459 -80.717209 6.229153 5.838900 -93.711268 0.000000 0.000000 -0.000003 6.862854 13.055867 -80.453611 4.622928 5.721177 -77.863009 -0.000000 0.000001 -0.000000 0.000000 0.000002 0.000000 1.488249 5.885603 17.416878 -24.871077 39.749386 30.204261 -0.000010 58.433177 0.000017 22.442490 19.224599 -8.382251 6.136043 -4.359724 -2.851585 2.243827 -9.509123 -17.039288 -0.000003 0.000002 -0.000001 -3.507681 -3.836463 75.911508 3.646451 -4.546383 77.452508 0.000004 -0.000001 0.000002 -3.280094 -5.245453 77.143428 3.967443 -4.605908 81.473871 0.000006 0.000002 0.000005 -4.422542 -5.630517 81.426708 3.284965 -4.450840 72.845948 -0.000000 0.000000 0.000002 -2.727276 -6.572469 86.544514 3.708199 -4.559672 78.229831 0.000002 0.000001 -0.000001 0.000003 0.000001 0.000001 0.000000 0.000000 0.000002 0.000000 0.000000 0.000002 0.000000 0.000000 0.000002 0.000000 0.000000 0.000002 0.000000 0.000000 0.000002 0.000000 0.000000 0.000002 0.000000 0.000000 0.000002 0.000000 0.000000 0.000002 0.000000 0.000000 0.000002 0.000000 0.000000 0.000002 -0.000000 -0.000000 0.000000 -0.000000 -0.000000 0.000000 -0.000000 -0.000000 0.000000 
3.864663 59.871956 25.614908 -0.815450 -14.397603 -2.901283 0.000000 0.000001 0.000000 -66.353894 5.559095 -3.871605 62.372379 10.024243 -1.565512 -8.782857 29.677083 -4.129811 -0.000000 -0.000001 0.000000 0.000000 -0.000000 0.000000 0.978655 -8.876306 -6.199641 57.065558 3.360469 -4.785289 -46.809701 13.497018 6.148293 0.000001 -0.000000 0.000000 0.000000 -0.000000 -0.000000 7.799483 6.340511 13.957796 1.875766 1.889028 4.990321 3.411630 1.957408 4.768605 -2.788191 -2.142248 2.747005 -6.410982 -12.761122 5.632520 0.000001 -0.000001 -0.000002 0.000001 -0.000001 -0.000002 0.000001 -0.000001 -0.000001 0.000001 -0.000001 -0.000002 -0.000000 0.000001 -0.000001 0.000001 -0.000001 -0.000002 -0.000000 0.000001 -0.000001 0.000001 -0.000001 -0.000002 0.000001 -0.000001 -0.000002 -0.328268 -1.411651 -1.875888 15.004307 19.724055 -46.240319 -0.000006 -38.448795 -0.000005 13.171435 13.431639 -23.582287 -0.650372 7.029305 -6.200482 13.988250 15.893857 19.131963 -0.000003 -0.000000 0.000003 10.545950 5.568528 -93.072256 4.181558 5.608597 -73.393948 -0.000002 -0.000001 -0.000000 5.052569 8.135682 -82.302331 4.807207 5.757500 -79.705569 0.000002 0.000002 -0.000003 2.615833 7.712040 -79.976925 6.137478 5.844091 -92.810578 0.000001 -0.000000 0.000003 7.010387 13.223415 -79.828539 4.554602 5.706114 -77.176725 0.000003 0.000001 -0.000001 -0.000001 0.000002 -0.000000 1.771441 6.228513 21.561960 -31.088381 39.491925 26.932194 -0.000010 56.259517 0.000003 25.154931 14.604543 -8.300987 6.488105 -4.704375 -2.739449 2.119658 -9.757480 -17.686812 0.000000 0.000002 -0.000000 -3.365787 -4.143798 77.562412 3.754973 -4.569113 78.817815 -0.000002 0.000002 -0.000003 -3.397707 -5.412189 78.623394 4.086369 -4.622135 82.952381 -0.000001 0.000001 -0.000001 -4.773397 -5.817801 82.937143 3.380254 -4.479064 74.069741 -0.000004 -0.000003 0.000001 -3.479804 -6.658865 87.906010 3.822072 -4.581849 79.658953 -0.000000 0.000002 0.000003 -0.000001 -0.000000 -0.000000 0.000001 0.000000 0.000001 0.000001 0.000000 0.000002 0.000001 0.000000 0.000001 0.000001 0.000000 0.000001 0.000001 0.000000 0.000001 0.000001 0.000000 0.000003 0.000001 0.000000 0.000001 0.000001 0.000000 0.000001 0.000001 0.000000 0.000001 0.000001 0.000000 0.000003 0.000000 0.000001 0.000000 0.000000 0.000001 0.000000 0.000000 0.000001 0.000000 
